<svg width="708pt" height="504pt" viewBox="0.00 0.00 707.92 504.03" xmlns="http://www.w3.org/2000/svg" xmlns:xlink="http://www.w3.org/1999/xlink">
<g id="graph0" class="graph" transform="scale(1 1) rotate(0) translate(4 500.03)">
<title>pas_cdex_decision_tree</title>
<polygon fill="white" stroke="none" points="-4,4 -4,-500.03 703.92,-500.03 703.92,4 -4,4"></polygon>
<text text-anchor="middle" x="349.96" y="-8.2" font-family="Times,serif" font-size="14.00">PAS CDex Decision Tree</text>
<!-- st -->
<g id="node1" class="node">
<title>st</title>
<ellipse fill="none" stroke="black" cx="384.06" cy="-478.03" rx="40.01" ry="18"></ellipse>
<text text-anchor="middle" x="384.06" y="-473.83" font-family="Courier,monospace" font-size="14.00">Start</text>
</g>
<!-- pas -->
<g id="node3" class="node">
<title>pas</title>
<ellipse fill="none" stroke="black" cx="384.06" cy="-405.03" rx="202.28" ry="18"></ellipse>
<text text-anchor="middle" x="384.06" y="-400.83" font-family="Courier,monospace" font-size="14.00">Using PAS for Prior Auth Request?</text>
</g>
<!-- st&#45;&gt;pas -->
<g id="edge1" class="edge">
<title>st-&gt;pas</title>
<path fill="none" stroke="black" d="M384.06,-459.84C384.06,-452.26 384.06,-443.13 384.06,-434.57"></path>
<polygon fill="black" stroke="black" points="387.56,-434.57 384.06,-424.57 380.56,-434.57 387.56,-434.57"></polygon>
</g>
<!-- e -->
<g id="node2" class="node">
<title>e</title>
<ellipse fill="none" stroke="black" cx="249.06" cy="-42.8" rx="28.42" ry="18"></ellipse>
<text text-anchor="middle" x="249.06" y="-38.6" font-family="Courier,monospace" font-size="14.00">End</text>
</g>
<!-- use_pas -->
<g id="node4" class="node">
<title>use_pas</title>
<ellipse fill="none" stroke="black" cx="259.06" cy="-316.23" rx="208.07" ry="18"></ellipse>
<text text-anchor="middle" x="259.06" y="-312.03" font-family="Courier,monospace" font-size="14.00">Use PAS for Requesting Attachments</text>
</g>
<!-- pas&#45;&gt;use_pas -->
<g id="edge2" class="edge">
<title>pas-&gt;use_pas</title>
<path fill="none" stroke="black" d="M359.06,-386.67C340.24,-373.61 314.22,-355.54 293.44,-341.11"></path>
<polygon fill="black" stroke="black" points="295.46,-338.25 285.25,-335.42 291.47,-344 295.46,-338.25"></polygon>
<text text-anchor="middle" x="350.95" y="-356.43" font-family="Times,serif" font-size="14.00">1. Yes</text>
</g>
<!-- use_cdex -->
<g id="node5" class="node">
<title>use_cdex</title>
<ellipse fill="none" stroke="black" cx="486.06" cy="-115.8" rx="213.87" ry="18"></ellipse>
<text text-anchor="middle" x="486.06" y="-111.6" font-family="Courier,monospace" font-size="14.00">Use CDex for Requesting Attachments</text>
</g>
<!-- pas&#45;&gt;use_cdex -->
<g id="edge3" class="edge">
<title>pas-&gt;use_cdex</title>
<path fill="none" stroke="black" d="M419.43,-386.84C439.67,-375.01 463.46,-357.28 476.06,-334.23 509.11,-273.76 500.15,-189.12 492.26,-145.42"></path>
<polygon fill="black" stroke="black" points="495.72,-144.87 490.38,-135.72 488.84,-146.2 495.72,-144.87"></polygon>
<text text-anchor="middle" x="571.29" y="-267.63" font-family="Times,serif" font-size="14.00"> 2. No, some other channel</text>
</g>
<!-- more -->
<g id="node6" class="node">
<title>more</title>
<ellipse fill="none" stroke="black" cx="237.06" cy="-216.02" rx="237.06" ry="29.42"></ellipse>
<text text-anchor="middle" x="237.06" y="-220.22" font-family="Courier,monospace" font-size="14.00">Subsequent</text>
<text text-anchor="middle" x="237.06" y="-203.42" font-family="Courier,monospace" font-size="14.00">request(s) for additional information?</text>
</g>
<!-- use_pas&#45;&gt;more -->
<g id="edge4" class="edge">
<title>use_pas-&gt;more</title>
<path fill="none" stroke="black" d="M255.23,-298.12C252.68,-286.76 249.23,-271.35 246.02,-257.01"></path>
<polygon fill="black" stroke="black" points="249.45,-256.31 243.85,-247.32 242.62,-257.84 249.45,-256.31"></polygon>
</g>
<!-- use_cdex&#45;&gt;e -->
<g id="edge7" class="edge">
<title>use_cdex-&gt;e</title>
<path fill="none" stroke="black" d="M429.89,-97.97C385.04,-84.54 323.54,-66.11 285.06,-54.59"></path>
<polygon fill="black" stroke="black" points="286.41,-51.34 275.83,-51.82 284.4,-58.04 286.41,-51.34"></polygon>
</g>
<!-- more&#45;&gt;e -->
<g id="edge6" class="edge">
<title>more-&gt;e</title>
<path fill="none" stroke="black" d="M239.07,-186.36C241.29,-154.62 244.86,-103.77 247.07,-72.15"></path>
<polygon fill="black" stroke="black" points="250.54,-72.79 247.74,-62.57 243.55,-72.3 250.54,-72.79"></polygon>
<text text-anchor="middle" x="254.61" y="-111.6" font-family="Times,serif" font-size="14.00">No</text>
</g>
<!-- more&#45;&gt;use_cdex -->
<g id="edge5" class="edge">
<title>more-&gt;use_cdex</title>
<path fill="none" stroke="black" d="M306.75,-187.53C346.56,-171.82 395.71,-152.44 432.47,-137.94"></path>
<polygon fill="black" stroke="black" points="433.55,-141.27 441.57,-134.35 430.98,-134.76 433.55,-141.27"></polygon>
<text text-anchor="middle" x="408.95" y="-156" font-family="Times,serif" font-size="14.00">3. Yes</text>
</g>
</g>
</svg>