<!--
edit in HackMD and export as SVG from inspector

```graphviz
digraph Heirarchy {

TREAT,COVERAGE,CLMATTCH,COVAUTH,HQUALIMP,HDM,COC [style=dotted]
"treatment-noa","payment-noa","operations-noa","care-planning","social-risk"[style=dashed]
HPAYMT,HOPERAT,TREAT[fontsize=20]
HPAYMT[label=<<u>HPAYMT</u>>]
HOPERAT[label=<<u>HOPERAT</u>>]
Treatment,Payment,"Health Care Operations","45 CFR 164.506 Treatment, Payment, and Health Care Operations" [fontsize=24,style=bold]
{Payment "Health Care Operations" Treatment}->"45 CFR 164.506 Treatment, Payment, and Health Care Operations"
"treatment-noa"->Treatment
"payment-noa"->Payment
"operations-noa"->"Health Care Operations"
COVERAGE->HPAYMT->Payment
CLMATTCH->HPAYMT
COVAUTH->HPAYMT
HQUALIMP->HOPERAT->"Health Care Operations"
HDM->HOPERAT
COC->TREAT->Treatment
"care-planning"->Treatment
"care-planning"->"Health Care Operations"
"social-risk"->Treatment
"social-risk"->"Health Care Operations"
}
```
 -->

<svg width="1290pt" height="301pt" viewBox="0.00 0.00 1290.11 301.34" xmlns="http://www.w3.org/2000/svg" xmlns:xlink="http://www.w3.org/1999/xlink">
<g id="graph0" class="graph" transform="scale(1 1) rotate(0) translate(4 297.341)">
<title>Heirarchy</title>
<polygon fill="#ffffff" stroke="transparent" points="-4,4 -4,-297.341 1286.1055,-297.341 1286.1055,4 -4,4"></polygon>
<!-- TREAT -->
<g id="node1" class="node">
<title>TREAT</title>
<ellipse fill="none" stroke="#000000" stroke-dasharray="1,5" cx="56.8726" cy="-198.7135" rx="56.7455" ry="22.7556"></ellipse>
<text text-anchor="middle" x="56.8726" y="-192.7135" font-family="Times,serif" font-size="20.00" fill="#000000">TREAT</text>
</g>
<!-- Treatment -->
<g id="node15" class="node">
<title>Treatment</title>
<ellipse fill="none" stroke="#000000" stroke-width="2" cx="343.8726" cy="-114.0646" rx="81.0983" ry="26.0431"></ellipse>
<text text-anchor="middle" x="343.8726" y="-106.8646" font-family="Times,serif" font-size="24.00" fill="#000000">Treatment</text>
</g>
<!-- TREAT&#45;&gt;Treatment -->
<g id="edge15" class="edge">
<title>TREAT-&gt;Treatment</title>
<path fill="none" stroke="#000000" d="M99.7149,-183.6316C107.4005,-181.0386 115.3553,-178.4275 122.8726,-176.0861 172.1133,-160.7493 228.0492,-145.0683 271.3262,-133.3107"></path>
<polygon fill="#000000" stroke="#000000" points="272.4626,-136.6292 281.1998,-130.6366 270.6326,-129.8726 272.4626,-136.6292"></polygon>
</g>
<!-- COVERAGE -->
<g id="node2" class="node">
<title>COVERAGE</title>
<ellipse fill="none" stroke="#000000" stroke-dasharray="1,5" cx="937.8726" cy="-275.341" rx="63.7025" ry="18"></ellipse>
<text text-anchor="middle" x="937.8726" y="-271.141" font-family="Times,serif" font-size="14.00" fill="#000000">COVERAGE</text>
</g>
<!-- HPAYMT -->
<g id="node13" class="node">
<title>HPAYMT</title>
<ellipse fill="none" stroke="#000000" cx="1083.8726" cy="-198.7135" rx="71.0266" ry="22.7556"></ellipse>
<text text-anchor="start" x="1041.6586" y="-193.7135" font-family="Times,serif" text-decoration="underline" font-size="20.00" fill="#000000">HPAYMT</text>
</g>
<!-- COVERAGE&#45;&gt;HPAYMT -->
<g id="edge7" class="edge">
<title>COVERAGE-&gt;HPAYMT</title>
<path fill="none" stroke="#000000" d="M968.1239,-259.4637C988.2382,-248.9068 1015.0381,-234.841 1037.7845,-222.9026"></path>
<polygon fill="#000000" stroke="#000000" points="1039.6995,-225.8504 1046.9275,-218.104 1036.4463,-219.6522 1039.6995,-225.8504"></polygon>
</g>
<!-- CLMATTCH -->
<g id="node3" class="node">
<title>CLMATTCH</title>
<ellipse fill="none" stroke="#000000" stroke-dasharray="1,5" cx="1083.8726" cy="-275.341" rx="64.2843" ry="18"></ellipse>
<text text-anchor="middle" x="1083.8726" y="-271.141" font-family="Times,serif" font-size="14.00" fill="#000000">CLMATTCH</text>
</g>
<!-- CLMATTCH&#45;&gt;HPAYMT -->
<g id="edge9" class="edge">
<title>CLMATTCH-&gt;HPAYMT</title>
<path fill="none" stroke="#000000" d="M1083.8726,-257.1813C1083.8726,-249.4833 1083.8726,-240.2678 1083.8726,-231.4544"></path>
<polygon fill="#000000" stroke="#000000" points="1087.3727,-231.4078 1083.8726,-221.4078 1080.3727,-231.4079 1087.3727,-231.4078"></polygon>
</g>
<!-- COVAUTH -->
<g id="node4" class="node">
<title>COVAUTH</title>
<ellipse fill="none" stroke="#000000" stroke-dasharray="1,5" cx="1223.8726" cy="-275.341" rx="58.4667" ry="18"></ellipse>
<text text-anchor="middle" x="1223.8726" y="-271.141" font-family="Times,serif" font-size="14.00" fill="#000000">COVAUTH</text>
</g>
<!-- COVAUTH&#45;&gt;HPAYMT -->
<g id="edge10" class="edge">
<title>COVAUTH-&gt;HPAYMT</title>
<path fill="none" stroke="#000000" d="M1195.2037,-259.6493C1176.0089,-249.1433 1150.3544,-235.1016 1128.5102,-223.1454"></path>
<polygon fill="#000000" stroke="#000000" points="1130.1776,-220.0681 1119.7251,-218.337 1126.8167,-226.2085 1130.1776,-220.0681"></polygon>
</g>
<!-- HQUALIMP -->
<g id="node5" class="node">
<title>HQUALIMP</title>
<ellipse fill="none" stroke="#000000" stroke-dasharray="1,5" cx="785.8726" cy="-275.341" rx="61.977" ry="18"></ellipse>
<text text-anchor="middle" x="785.8726" y="-271.141" font-family="Times,serif" font-size="14.00" fill="#000000">HQUALIMP</text>
</g>
<!-- HOPERAT -->
<g id="node14" class="node">
<title>HOPERAT</title>
<ellipse fill="none" stroke="#000000" cx="777.8726" cy="-198.7135" rx="76.5264" ry="22.7556"></ellipse>
<text text-anchor="start" x="731.7696" y="-193.7135" font-family="Times,serif" text-decoration="underline" font-size="20.00" fill="#000000">HOPERAT</text>
</g>
<!-- HQUALIMP&#45;&gt;HOPERAT -->
<g id="edge11" class="edge">
<title>HQUALIMP-&gt;HOPERAT</title>
<path fill="none" stroke="#000000" d="M783.9767,-257.1813C783.173,-249.4833 782.2109,-240.2678 781.2908,-231.4544"></path>
<polygon fill="#000000" stroke="#000000" points="784.7614,-230.9903 780.2419,-221.4078 777.7993,-231.7172 784.7614,-230.9903"></polygon>
</g>
<!-- HDM -->
<g id="node6" class="node">
<title>HDM</title>
<ellipse fill="none" stroke="#000000" stroke-dasharray="1,5" cx="671.8726" cy="-275.341" rx="33.6266" ry="18"></ellipse>
<text text-anchor="middle" x="671.8726" y="-271.141" font-family="Times,serif" font-size="14.00" fill="#000000">HDM</text>
</g>
<!-- HDM&#45;&gt;HOPERAT -->
<g id="edge13" class="edge">
<title>HDM-&gt;HOPERAT</title>
<path fill="none" stroke="#000000" d="M692.3105,-260.5664C705.9378,-250.7152 724.2544,-237.4741 740.4437,-225.7709"></path>
<polygon fill="#000000" stroke="#000000" points="742.626,-228.5121 748.6797,-219.8171 738.525,-222.8392 742.626,-228.5121"></polygon>
</g>
<!-- COC -->
<g id="node7" class="node">
<title>COC</title>
<ellipse fill="none" stroke="#000000" stroke-dasharray="1,5" cx="56.8726" cy="-275.341" rx="30.777" ry="18"></ellipse>
<text text-anchor="middle" x="56.8726" y="-271.141" font-family="Times,serif" font-size="14.00" fill="#000000">COC</text>
</g>
<!-- COC&#45;&gt;TREAT -->
<g id="edge14" class="edge">
<title>COC-&gt;TREAT</title>
<path fill="none" stroke="#000000" d="M56.8726,-257.1813C56.8726,-249.4833 56.8726,-240.2678 56.8726,-231.4544"></path>
<polygon fill="#000000" stroke="#000000" points="60.3727,-231.4078 56.8726,-221.4078 53.3727,-231.4079 60.3727,-231.4078"></polygon>
</g>
<!-- treatment&#45;noa -->
<g id="node8" class="node">
<title>treatment-noa</title>
<ellipse fill="none" stroke="#000000" stroke-dasharray="5,2" cx="196.8726" cy="-198.7135" rx="64.8234" ry="18"></ellipse>
<text text-anchor="middle" x="196.8726" y="-194.5135" font-family="Times,serif" font-size="14.00" fill="#000000">treatment-noa</text>
</g>
<!-- treatment&#45;noa&#45;&gt;Treatment -->
<g id="edge4" class="edge">
<title>treatment-noa-&gt;Treatment</title>
<path fill="none" stroke="#000000" d="M225.2157,-182.3924C245.1162,-170.9328 272.2275,-155.3209 295.5119,-141.9128"></path>
<polygon fill="#000000" stroke="#000000" points="297.3061,-144.9185 304.2254,-136.8951 293.8129,-138.8523 297.3061,-144.9185"></polygon>
</g>
<!-- payment&#45;noa -->
<g id="node9" class="node">
<title>payment-noa</title>
<ellipse fill="none" stroke="#000000" stroke-dasharray="5,2" cx="933.8726" cy="-198.7135" rx="61.3993" ry="18"></ellipse>
<text text-anchor="middle" x="933.8726" y="-194.5135" font-family="Times,serif" font-size="14.00" fill="#000000">payment-noa</text>
</g>
<!-- Payment -->
<g id="node16" class="node">
<title>Payment</title>
<ellipse fill="none" stroke="#000000" stroke-width="2" cx="933.8726" cy="-114.0646" rx="70.905" ry="26.0431"></ellipse>
<text text-anchor="middle" x="933.8726" y="-106.8646" font-family="Times,serif" font-size="24.00" fill="#000000">Payment</text>
</g>
<!-- payment&#45;noa&#45;&gt;Payment -->
<g id="edge5" class="edge">
<title>payment-noa-&gt;Payment</title>
<path fill="none" stroke="#000000" d="M933.8726,-180.346C933.8726,-171.5206 933.8726,-160.623 933.8726,-150.2314"></path>
<polygon fill="#000000" stroke="#000000" points="937.3727,-150.104 933.8726,-140.1041 930.3727,-150.1041 937.3727,-150.104"></polygon>
</g>
<!-- operations&#45;noa -->
<g id="node10" class="node">
<title>operations-noa</title>
<ellipse fill="none" stroke="#000000" stroke-dasharray="5,2" cx="614.8726" cy="-198.7135" rx="68.3401" ry="18"></ellipse>
<text text-anchor="middle" x="614.8726" y="-194.5135" font-family="Times,serif" font-size="14.00" fill="#000000">operations-noa</text>
</g>
<!-- Health Care Operations -->
<g id="node17" class="node">
<title>Health Care Operations</title>
<ellipse fill="none" stroke="#000000" stroke-width="2" cx="614.8726" cy="-114.0646" rx="171.5452" ry="26.0431"></ellipse>
<text text-anchor="middle" x="614.8726" y="-106.8646" font-family="Times,serif" font-size="24.00" fill="#000000">Health Care Operations</text>
</g>
<!-- operations&#45;noa&#45;&gt;Health Care Operations -->
<g id="edge6" class="edge">
<title>operations-noa-&gt;Health Care Operations</title>
<path fill="none" stroke="#000000" d="M614.8726,-180.346C614.8726,-171.5206 614.8726,-160.623 614.8726,-150.2314"></path>
<polygon fill="#000000" stroke="#000000" points="618.3727,-150.104 614.8726,-140.1041 611.3727,-150.1041 618.3727,-150.104"></polygon>
</g>
<!-- care&#45;planning -->
<g id="node11" class="node">
<title>care-planning</title>
<ellipse fill="none" stroke="#000000" stroke-dasharray="5,2" cx="343.8726" cy="-198.7135" rx="64.2456" ry="18"></ellipse>
<text text-anchor="middle" x="343.8726" y="-194.5135" font-family="Times,serif" font-size="14.00" fill="#000000">care-planning</text>
</g>
<!-- care&#45;planning&#45;&gt;Treatment -->
<g id="edge16" class="edge">
<title>care-planning-&gt;Treatment</title>
<path fill="none" stroke="#000000" d="M343.8726,-180.346C343.8726,-171.5206 343.8726,-160.623 343.8726,-150.2314"></path>
<polygon fill="#000000" stroke="#000000" points="347.3727,-150.104 343.8726,-140.1041 340.3727,-150.1041 347.3727,-150.104"></polygon>
</g>
<!-- care&#45;planning&#45;&gt;Health Care Operations -->
<g id="edge17" class="edge">
<title>care-planning-&gt;Health Care Operations</title>
<path fill="none" stroke="#000000" d="M386.8134,-185.3007C425.211,-173.3068 482.6041,-155.3797 530.2071,-140.5105"></path>
<polygon fill="#000000" stroke="#000000" points="531.3953,-143.8062 539.897,-137.4838 529.3082,-137.1246 531.3953,-143.8062"></polygon>
</g>
<!-- social&#45;risk -->
<g id="node12" class="node">
<title>social-risk</title>
<ellipse fill="none" stroke="#000000" stroke-dasharray="5,2" cx="476.8726" cy="-198.7135" rx="51.0184" ry="18"></ellipse>
<text text-anchor="middle" x="476.8726" y="-194.5135" font-family="Times,serif" font-size="14.00" fill="#000000">social-risk</text>
</g>
<!-- social&#45;risk&#45;&gt;Treatment -->
<g id="edge18" class="edge">
<title>social-risk-&gt;Treatment</title>
<path fill="none" stroke="#000000" d="M451.8563,-182.7917C434.1981,-171.553 410.0423,-156.1789 389.0546,-142.8211"></path>
<polygon fill="#000000" stroke="#000000" points="390.901,-139.8474 380.5854,-137.4308 387.1424,-145.7528 390.901,-139.8474"></polygon>
</g>
<!-- social&#45;risk&#45;&gt;Health Care Operations -->
<g id="edge19" class="edge">
<title>social-risk-&gt;Health Care Operations</title>
<path fill="none" stroke="#000000" d="M502.5059,-182.9901C520.0439,-172.2324 543.8677,-157.6188 565.0659,-144.6159"></path>
<polygon fill="#000000" stroke="#000000" points="566.9609,-147.5596 573.655,-139.3474 563.3008,-141.5927 566.9609,-147.5596"></polygon>
</g>
<!-- HPAYMT&#45;&gt;Payment -->
<g id="edge8" class="edge">
<title>HPAYMT-&gt;Payment</title>
<path fill="none" stroke="#000000" d="M1048.7043,-178.8671C1028.612,-167.5285 1003.147,-153.158 981.3054,-140.8322"></path>
<polygon fill="#000000" stroke="#000000" points="982.9365,-137.7338 972.5074,-135.8672 979.4962,-143.8301 982.9365,-137.7338"></polygon>
</g>
<!-- HOPERAT&#45;&gt;Health Care Operations -->
<g id="edge12" class="edge">
<title>HOPERAT-&gt;Health Care Operations</title>
<path fill="none" stroke="#000000" d="M739.6563,-178.8671C719.5596,-168.4305 694.5162,-155.425 672.15,-143.8098"></path>
<polygon fill="#000000" stroke="#000000" points="673.5654,-140.6011 663.0777,-139.0984 670.3392,-146.8133 673.5654,-140.6011"></polygon>
</g>
<!-- 45 CFR 164.506 Treatment, Payment, and Health Care Operations -->
<g id="node18" class="node">
<title>45 CFR 164.506 Treatment, Payment, and Health Care Operations</title>
<ellipse fill="none" stroke="#000000" stroke-width="2" cx="614.8726" cy="-26.0215" rx="463.0713" ry="26.0431"></ellipse>
<text text-anchor="middle" x="614.8726" y="-18.8215" font-family="Times,serif" font-size="24.00" fill="#000000">45 CFR 164.506 Treatment, Payment, and Health Care Operations</text>
</g>
<!-- Treatment&#45;&gt;45 CFR 164.506 Treatment, Payment, and Health Care Operations -->
<g id="edge1" class="edge">
<title>Treatment-&gt;45 CFR 164.506 Treatment, Payment, and Health Care Operations</title>
<path fill="none" stroke="#000000" d="M401.0136,-95.5005C437.2422,-83.7305 484.8574,-68.2611 525.9605,-54.9075"></path>
<polygon fill="#000000" stroke="#000000" points="527.282,-58.1583 535.7112,-51.7396 525.1191,-51.5008 527.282,-58.1583"></polygon>
</g>
<!-- Payment&#45;&gt;45 CFR 164.506 Treatment, Payment, and Health Care Operations -->
<g id="edge2" class="edge">
<title>Payment-&gt;45 CFR 164.506 Treatment, Payment, and Health Care Operations</title>
<path fill="none" stroke="#000000" d="M877.2094,-98.4257C832.9655,-86.2145 770.3178,-68.924 717.3386,-54.3018"></path>
<polygon fill="#000000" stroke="#000000" points="718.1361,-50.8912 707.5654,-51.6045 716.2737,-57.6389 718.1361,-50.8912"></polygon>
</g>
<!-- Health Care Operations&#45;&gt;45 CFR 164.506 Treatment, Payment, and Health Care Operations -->
<g id="edge3" class="edge">
<title>Health Care Operations-&gt;45 CFR 164.506 Treatment, Payment, and Health Care Operations</title>
<path fill="none" stroke="#000000" d="M614.8726,-87.6488C614.8726,-79.6545 614.8726,-70.7328 614.8726,-62.2152"></path>
<polygon fill="#000000" stroke="#000000" points="618.3727,-62.1153 614.8726,-52.1153 611.3727,-62.1153 618.3727,-62.1153"></polygon>
</g>
</g>
</svg>